<svg width="24" height="24" viewBox="0 0 24 24" fill="none" xmlns="http://www.w3.org/2000/svg">
<rect width="24" height="24" rx="8" fill="#E5ECF6"/>
<rect width="24" height="24" rx="8" fill="#E5ECF6"/>
<path d="M11.5 18H13.25C13.5261 18 13.75 17.7761 13.75 17.5C13.75 17.2239 13.5261 17 13.25 17H12V14.5C12 14.2239 11.7761 14 11.5 14C11.2239 14 11 14.2239 11 14.5V17.5C11 17.7761 11.2239 18 11.5 18Z" fill="#1C1C1C"/>
<path d="M9.09987 17.7998C9.17944 17.9059 9.29801 17.9762 9.42929 17.995C9.45271 17.9983 9.47634 18 9.5 18L9.50172 18C9.60931 17.9996 9.71392 17.9646 9.8 17.9C9.9259 17.8056 10 17.6574 10 17.5L9.99996 17.4934C9.99857 17.3875 9.96357 17.2848 9.9 17.2L7.65 14.2C7.57044 14.0939 7.45199 14.0238 7.32071 14.005C7.29729 14.0017 7.27366 14 7.25 14L7.24828 14C7.14069 14.0004 7.03608 14.0354 6.95 14.1C6.84391 14.1796 6.77378 14.298 6.75503 14.4293C6.75168 14.4527 6.75 14.4763 6.75 14.5L6.75 14.5017C6.75037 14.6093 6.78544 14.7139 6.85 14.8L9.09987 17.7998Z" fill="#1C1C1C"/>
<path d="M6.85 17.2C6.78509 17.2865 6.75 17.3918 6.75 17.5L6.75002 17.5044C6.75021 17.5266 6.75189 17.5487 6.75503 17.5707C6.77378 17.702 6.84391 17.8204 6.95 17.9C7.03655 17.9649 7.14181 18 7.25 18L7.2544 18C7.27659 17.9998 7.29874 17.9981 7.32071 17.995C7.45199 17.9762 7.57044 17.9061 7.65 17.8L9.9 14.8C9.96491 14.7135 10 14.6082 10 14.5L9.99998 14.4956C9.99979 14.4734 9.99811 14.4513 9.99497 14.4293C9.97622 14.298 9.90609 14.1796 9.8 14.1C9.71345 14.0351 9.60819 14 9.5 14L9.4956 14C9.47341 14.0002 9.45126 14.0019 9.42929 14.005C9.29801 14.0238 9.17956 14.0939 9.1 14.2L6.85 17.2Z" fill="#1C1C1C"/>
<path d="M15.9362 14.9375C16.2914 14.9384 16.5761 15.1508 16.5761 15.1508C16.6624 15.2152 16.7673 15.25 16.875 15.25C16.8818 15.25 16.8887 15.2499 16.8955 15.2496C17.046 15.2434 17.1857 15.1697 17.2758 15.0489C17.3402 14.9626 17.375 14.8577 17.375 14.75L17.375 14.7443C17.3747 14.7221 17.373 14.6999 17.3698 14.678C17.3507 14.5468 17.2802 14.4285 17.1739 14.3492C16.6244 13.9393 15.9388 13.9375 15.9388 13.9375C15.3281 13.9375 14.9324 14.2766 14.9324 14.2766C14.5 14.6473 14.5 15.25 14.5 15.25C14.5 15.8454 15.0522 16.1663 15.0522 16.1663C15.2928 16.3062 15.8476 16.4534 15.8476 16.4534C16.5 16.6266 16.5 16.75 16.5 16.75C16.5 16.912 16.4102 16.9695 16.4102 16.9695C16.2648 17.0625 15.9375 17.0625 15.9375 17.0625C15.5838 17.0616 15.2993 16.8494 15.2993 16.8494C15.2129 16.785 15.1077 16.75 15 16.75C14.9932 16.75 14.9863 16.7501 14.9795 16.7504C14.829 16.7566 14.6893 16.8303 14.5992 16.9511C14.5348 17.0374 14.5 17.1423 14.5 17.25L14.5 17.2557C14.5003 17.2779 14.502 17.3001 14.5052 17.322C14.5243 17.4532 14.5948 17.5715 14.7011 17.6508C15.2505 18.0604 15.9375 18.0625 15.9375 18.0625C16.5574 18.0625 16.9492 17.8118 16.9492 17.8118C17.5 17.4593 17.5 16.75 17.5 16.75C17.5 16.1272 16.9341 15.7904 16.9341 15.7904C16.6815 15.6401 16.104 15.4869 16.104 15.4869C15.5 15.3266 15.5 15.25 15.5 15.25C15.5 14.9375 15.9362 14.9375 15.9362 14.9375Z" fill="#1C1C1C"/>
<path d="M16.5 9.70711V12C16.5 12.2761 16.7239 12.5 17 12.5C17.2761 12.5 17.5 12.2761 17.5 12V9.5C17.5 9.36739 17.4473 9.24021 17.3536 9.14645L13.8536 5.64645C13.7598 5.55268 13.6326 5.5 13.5 5.5L7.5 5.5C7.08579 5.5 6.79289 5.79289 6.79289 5.79289C6.5 6.08579 6.5 6.5 6.5 6.5V12C6.5 12.2761 6.72386 12.5 7 12.5C7.27614 12.5 7.5 12.2761 7.5 12V6.5H13.2929L16.5 9.70711Z" fill="#1C1C1C"/>
<path d="M13.5 10H17C17.2761 10 17.5 9.77614 17.5 9.5C17.5 9.22386 17.2761 9 17 9H14V6C14 5.72386 13.7761 5.5 13.5 5.5C13.2239 5.5 13 5.72386 13 6V9.5C13 9.77614 13.2239 10 13.5 10Z" fill="#1C1C1C"/>
</svg>
