<svg width="24" height="24" viewBox="0 0 24 24" fill="none" xmlns="http://www.w3.org/2000/svg">
<rect width="24" height="24" rx="8" fill="#E5ECF6"/>
<rect width="24" height="24" rx="8" fill="#E3F5FF"/>
<path d="M13.5 6V9.5H17L13.5 6Z" fill="#1C1C1C"/>
<path d="M16.5 9.70711V12C16.5 12.2761 16.7239 12.5 17 12.5C17.2761 12.5 17.5 12.2761 17.5 12V9.5C17.5 9.36739 17.4473 9.24021 17.3536 9.14645L13.8536 5.64645C13.7598 5.55268 13.6326 5.5 13.5 5.5L7.5 5.5C7.08579 5.5 6.79289 5.79289 6.79289 5.79289C6.5 6.08579 6.5 6.5 6.5 6.5V12C6.5 12.2761 6.72386 12.5 7 12.5C7.27614 12.5 7.5 12.2761 7.5 12V6.5H13.2929L16.5 9.70711Z" fill="#1C1C1C"/>
<path d="M13.5 10H17C17.2761 10 17.5 9.77614 17.5 9.5C17.5 9.22386 17.2761 9 17 9H14V6C14 5.72386 13.7761 5.5 13.5 5.5C13.2239 5.5 13 5.72386 13 6V9.5C13 9.77614 13.2239 10 13.5 10Z" fill="#1C1C1C"/>
<path fill-rule="evenodd" clip-rule="evenodd" d="M10 17.5V14.5C10 14.2239 10.2239 14 10.5 14H11.5C11.5 14 12.1213 14 12.5607 14.4393C12.5607 14.4393 13 14.8787 13 15.5C13 15.5 13 16.1213 12.5607 16.5607C12.5607 16.5607 12.1213 17 11.5 17H11V17.5C11 17.7761 10.7761 18 10.5 18C10.2239 18 10 17.7761 10 17.5ZM11.5 16H11V15H11.5C11.5 15 11.7071 15 11.8536 15.1464C11.8536 15.1464 12 15.2929 12 15.5C12 15.5 12 15.7071 11.8536 15.8536C11.8536 15.8536 11.7071 16 11.5 16Z" fill="#1C1C1C"/>
<path d="M7.14645 16.8536C7 16.7071 7 16.5 7 16.5C7 16.2239 6.77614 16 6.5 16C6.22386 16 6 16.2239 6 16.5C6 17.1213 6.43934 17.5607 6.43934 17.5607C6.87868 18 7.5 18 7.5 18C8.12132 18 8.56066 17.5607 8.56066 17.5607C9 17.1213 9 16.5 9 16.5V14.5C9 14.2239 8.77614 14 8.5 14C8.22386 14 8 14.2239 8 14.5V16.5C8 16.7071 7.85355 16.8536 7.85355 16.8536C7.70711 17 7.5 17 7.5 17C7.29289 17 7.14645 16.8536 7.14645 16.8536Z" fill="#1C1C1C"/>
<path d="M15.3759 15C15.6273 14.9996 15.8303 15.1477 15.8303 15.1477C15.9159 15.2101 16.0191 15.2438 16.125 15.2438C16.1336 15.2438 16.1422 15.2435 16.1508 15.2431C16.3013 15.2353 16.4402 15.1601 16.5289 15.0384C16.5914 14.9529 16.625 14.8497 16.625 14.7438L16.625 14.7388C16.6247 14.7146 16.6227 14.6904 16.619 14.6665C16.5985 14.5355 16.5268 14.418 16.4197 14.3398C15.9524 13.999 15.3741 14 15.3741 14C14.5832 14 14.0329 14.6005 14.0329 14.6005C13.5 15.182 13.5 16 13.5 16C13.5 16.818 14.0329 17.3995 14.0329 17.3995C14.5832 18 15.375 18 15.375 18C15.8545 17.9935 16.2657 17.7605 16.2657 17.7605C16.677 17.5274 16.9254 17.1252 16.9254 17.1252C16.9742 17.0463 17 16.9553 17 16.8625V16.125C17 15.8489 16.7761 15.625 16.5 15.625H15.75C15.4739 15.625 15.25 15.8489 15.25 16.125C15.25 16.4011 15.4739 16.625 15.75 16.625H16V16.7028C15.9047 16.8157 15.7727 16.8905 15.7727 16.8905C15.5845 16.9971 15.375 17 15.375 17C15.0232 17 14.7702 16.7239 14.7702 16.7239C14.5 16.4291 14.5 16 14.5 16C14.5 15.5709 14.7702 15.2761 14.7702 15.2761C15.0232 15 15.3759 15 15.3759 15Z" fill="#1C1C1C"/>
</svg>
