<svg width="24" height="24" viewBox="0 0 24 24" fill="none" xmlns="http://www.w3.org/2000/svg">
<rect width="24" height="24" rx="8" fill="#E3F5FF"/>
<rect width="24" height="24" rx="8" fill="#E3F5FF"/>
<path d="M16.5 9.70711V12C16.5 12.2761 16.7239 12.5 17 12.5C17.2761 12.5 17.5 12.2761 17.5 12V9.5C17.5 9.36739 17.4473 9.24021 17.3536 9.14645L13.8536 5.64645C13.7598 5.55268 13.6326 5.5 13.5 5.5L7.5 5.5C7.08579 5.5 6.79289 5.79289 6.79289 5.79289C6.5 6.08579 6.5 6.5 6.5 6.5V12C6.5 12.2761 6.72386 12.5 7 12.5C7.27614 12.5 7.5 12.2761 7.5 12V6.5H13.2929L16.5 9.70711Z" fill="#1C1C1C"/>
<path d="M13.5 10H17C17.2761 10 17.5 9.77614 17.5 9.5C17.5 9.22386 17.2761 9 17 9H14V6C14 5.72386 13.7761 5.5 13.5 5.5C13.2239 5.5 13 5.72386 13 6V9.5C13 9.77614 13.2239 10 13.5 10Z" fill="#1C1C1C"/>
<path fill-rule="evenodd" clip-rule="evenodd" d="M14 17.5V14.5C14 14.2239 14.2239 14 14.5 14H15.5C15.5 14 16.1213 14 16.5607 14.4393C16.5607 14.4393 17 14.8787 17 15.5C17 15.5 17 16.1213 16.5607 16.5607C16.5607 16.5607 16.1213 17 15.5 17H15V17.5C15 17.7761 14.7761 18 14.5 18C14.2239 18 14 17.7761 14 17.5ZM15.5 16H15V15H15.5C15.5 15 15.7071 15 15.8536 15.1464C15.8536 15.1464 16 15.2929 16 15.5C16 15.5 16 15.7071 15.8536 15.8536C15.8536 15.8536 15.7071 16 15.5 16Z" fill="#1C1C1C"/>
<path d="M11.5 14.5V17.5C11.5 17.7761 11.7239 18 12 18C12.2761 18 12.5 17.7761 12.5 17.5V14.5C12.5 14.2239 12.2761 14 12 14C11.7239 14 11.5 14.2239 11.5 14.5Z" fill="#1C1C1C"/>
<path d="M7.5 18H9.5C9.77614 18 10 17.7761 10 17.5C10 17.2239 9.77614 17 9.5 17H8.43426L9.91603 14.7774C10.0692 14.5476 10.0071 14.2372 9.77735 14.084C9.69522 14.0292 9.59871 14 9.5 14H7.5C7.22386 14 7 14.2239 7 14.5C7 14.7761 7.22386 15 7.5 15H8.56574L7.08397 17.2226C7.02922 17.3048 7 17.4013 7 17.5C7 17.7761 7.22386 18 7.5 18Z" fill="#1C1C1C"/>
</svg>
