<svg width="65" height="20" viewBox="0 0 65 20" fill="none" xmlns="http://www.w3.org/2000/svg">
<path d="M10.2336 0.536972C10.2336 0.24041 9.9996 0 9.711 0C9.42241 0 9.18846 0.24041 9.18846 0.536972V3.62899C9.18846 3.78584 9.00391 3.86439 8.89598 3.75348L7.35807 2.17312C7.154 1.96342 6.82314 1.96342 6.61908 2.17312C6.41501 2.38282 6.41501 2.72281 6.61908 2.93251L8.88737 5.26342C9.08015 5.46152 9.18846 5.73021 9.18846 6.01036V8.76202C9.18846 8.89755 9.04568 8.98226 8.93146 8.91449L6.60505 7.53427C6.36895 7.39419 6.19666 7.16346 6.1261 6.89285L5.29584 3.70877C5.22115 3.42231 4.93462 3.25231 4.65585 3.32907C4.37709 3.40583 4.21166 3.70027 4.28636 3.98672L4.84927 6.14554C4.88878 6.29705 4.73031 6.422 4.59812 6.34358L1.9997 4.80197C1.74976 4.65369 1.43018 4.74168 1.28588 4.99851C1.14158 5.25534 1.22722 5.58375 1.47715 5.73203L4.07846 7.27536C4.21065 7.35378 4.18458 7.55729 4.03714 7.59788L1.93175 8.17759C1.65299 8.25435 1.48756 8.54879 1.56225 8.83525C1.63695 9.1217 1.92348 9.2917 2.20224 9.21494L5.30536 8.36051C5.5687 8.288 5.84929 8.32596 6.0854 8.46604L8.41059 9.84555C8.5248 9.91331 8.52481 10.0827 8.41059 10.1505L6.08083 11.5327C5.84472 11.6728 5.56413 11.7107 5.30079 11.6382L2.20224 10.7851C1.92348 10.7083 1.63695 10.8783 1.56225 11.1648C1.48756 11.4512 1.65299 11.7457 1.93175 11.8224L4.03257 12.4009C4.18001 12.4415 4.20608 12.645 4.07389 12.7234L1.47547 14.265C1.22554 14.4133 1.13991 14.7417 1.28421 14.9985C1.4285 15.2553 1.74809 15.3433 1.99802 15.1951L4.59934 13.6517C4.73153 13.5733 4.89 13.6983 4.8505 13.8498L4.28636 16.0133C4.21166 16.2997 4.37709 16.5942 4.65585 16.6709C4.93462 16.7477 5.22115 16.5777 5.29584 16.2912L6.12732 13.1025C6.19789 12.8318 6.37017 12.6011 6.60628 12.461L8.93146 11.0815C9.04568 11.0138 9.18846 11.0985 9.18846 11.234V13.9984C9.18846 14.2786 9.08015 14.5473 8.88737 14.7454L6.61908 17.0763C6.41501 17.286 6.41501 17.626 6.61908 17.8357C6.82314 18.0454 7.154 18.0454 7.35807 17.8357L8.89598 16.2553C9.00391 16.1444 9.18846 16.223 9.18846 16.3798V19.463C9.18846 19.7596 9.42241 20 9.711 20C9.9996 20 10.2336 19.7596 10.2336 19.463V16.3764C10.2336 16.2195 10.4181 16.141 10.526 16.2519L12.0673 17.8357C12.2714 18.0454 12.6022 18.0454 12.8063 17.8357C13.0103 17.626 13.0103 17.286 12.8063 17.0763L10.5346 14.7419C10.3419 14.5438 10.2336 14.2752 10.2336 13.995V11.232C10.2336 11.0965 10.3763 11.0118 10.4905 11.0796L12.8117 12.4566C13.0478 12.5967 13.2201 12.8275 13.2906 13.0981L14.1221 16.2868C14.1968 16.5733 14.4833 16.7433 14.7621 16.6665C15.0408 16.5898 15.2063 16.2953 15.1316 16.0089L14.5674 13.8454C14.5279 13.6939 14.6864 13.5689 14.8186 13.6473L17.4273 15.1951C17.6773 15.3433 17.9968 15.2553 18.1411 14.9985C18.2854 14.7417 18.1998 14.4133 17.9499 14.265L15.344 12.719C15.2118 12.6406 15.2379 12.4371 15.3854 12.3965L17.4862 11.818C17.765 11.7413 17.9304 11.4468 17.8557 11.1604C17.781 10.8739 17.4945 10.7039 17.2157 10.7807L14.1171 11.6338C13.8538 11.7063 13.5732 11.6684 13.3371 11.5283L11.0148 10.1505C10.9005 10.0827 10.9005 9.91331 11.0148 9.84555L13.3325 8.47044C13.5686 8.33036 13.8492 8.2924 14.1126 8.36491L17.2157 9.21935C17.4945 9.2961 17.781 9.12611 17.8557 8.83965C17.9304 8.55319 17.765 8.25875 17.4862 8.182L15.3808 7.60228C15.2334 7.56169 15.2073 7.35818 15.3395 7.27976L17.9482 5.73203C18.1981 5.58375 18.2838 5.25534 18.1395 4.99851C17.9952 4.74168 17.6756 4.65369 17.4257 4.80197L14.8198 6.34797C14.6876 6.4264 14.5292 6.30144 14.5687 6.14994L15.1316 3.99113C15.2063 3.70467 15.0408 3.41023 14.7621 3.33347C14.4833 3.25672 14.1968 3.42671 14.1221 3.71317L13.2918 6.89724C13.2213 7.16786 13.049 7.39858 12.8129 7.53866L10.4905 8.91648C10.3763 8.98424 10.2336 8.89954 10.2336 8.76401V6.0138C10.2336 5.73364 10.3419 5.46496 10.5346 5.26686L12.8063 2.93251C13.0103 2.72281 13.0103 2.38282 12.8063 2.17312C12.6022 1.96342 12.2714 1.96342 12.0673 2.17312L10.526 3.75692C10.4181 3.86783 10.2336 3.78928 10.2336 3.63243V0.536972Z" fill="#95A4FC"/>
<path d="M40.3449 14.6154V9.2308C40.3449 7.95629 39.3414 6.92311 38.1036 6.92311C36.8657 6.92311 35.8622 7.95629 35.8622 9.2308V14.6154H34.3679V9.2308C34.3679 7.10663 36.0404 5.38464 38.1036 5.38464C40.1667 5.38464 41.8392 7.10663 41.8392 9.2308V14.6154H40.3449Z" fill="#1C1C1C"/>
<path fill-rule="evenodd" clip-rule="evenodd" d="M48.5633 13.077C50.2138 13.077 51.5518 11.6994 51.5518 10C51.5518 8.30069 50.2138 6.92311 48.5633 6.92311C46.9128 6.92311 45.5748 8.30069 45.5748 10C45.5748 11.6994 46.9128 13.077 48.5633 13.077ZM48.5633 14.6154C51.0391 14.6154 53.0461 12.549 53.0461 10C53.0461 7.45102 51.0391 5.38464 48.5633 5.38464C46.0876 5.38464 44.0806 7.45102 44.0806 10C44.0806 12.549 46.0876 14.6154 48.5633 14.6154Z" fill="#95A4FC"/>
<path d="M54.5403 5.38464L55.9485 13.3474C56.2406 14.9991 58.3827 15.0526 58.7434 13.4172L59.5782 8.87835C59.6089 8.71161 59.826 8.71501 59.8523 8.88265L60.5548 13.3498C60.8666 14.9989 63.012 15.0201 63.3509 13.3774L65.0001 5.38464H63.5498L62.0986 13.0465C62.0674 13.2112 61.8536 13.209 61.8251 13.0437L60.507 5.38464H59.0472L57.5036 13.069C57.4706 13.2332 57.257 13.2284 57.2302 13.0629L55.9838 5.38464H54.5403Z" fill="#1C1C1C"/>
<path d="M28.6867 14.6154C29.7361 14.6154 30.5718 14.3903 31.1937 13.9212C31.8155 13.4522 32.1265 12.8143 32.1265 11.97C32.1265 11.2383 31.8738 10.6942 31.388 10.3002C30.8827 9.90622 30.222 9.56851 29.3863 9.26832C28.8227 9.04318 28.3369 8.8368 27.9676 8.64918C27.5984 8.46157 27.404 8.18014 27.404 7.80491C27.404 7.4672 27.5401 7.20453 27.8316 7.03568C28.1231 6.86682 28.5118 6.79177 28.9976 6.79177C29.3669 6.79177 29.7361 6.84806 30.0859 6.96063C30.4163 7.0732 30.7661 7.22329 31.1354 7.42967L31.7378 6.15387C31.3297 5.89121 30.8827 5.70359 30.4163 5.57226C29.9499 5.44093 29.4835 5.38464 28.9976 5.38464C28.0259 5.38464 27.2486 5.59102 26.6461 6.02254C26.0437 6.45406 25.7522 7.05444 25.7716 7.82367C25.791 8.53661 26.0437 9.0807 26.5489 9.45594C27.0348 9.83117 27.6955 10.1689 28.5312 10.4691C29.0948 10.6755 29.5612 10.8818 29.9304 11.0882C30.2997 11.2946 30.4746 11.6135 30.4746 12.0263C30.4746 12.4015 30.3191 12.683 30.0082 12.8893C29.6778 13.0957 29.2308 13.1895 28.6284 13.1895C28.2203 13.1895 27.7927 13.1145 27.3652 12.9831C26.9376 12.8518 26.4906 12.6454 26.0048 12.3265L25.4023 13.6586C25.8882 13.9588 26.4129 14.1839 26.9376 14.3527C27.4623 14.5216 28.0454 14.6154 28.6867 14.6154Z" fill="#1C1C1C"/>
</svg>
